<svg width="242" height="73" viewBox="0 0 242 73" fill="none" xmlns="http://www.w3.org/2000/svg">
<path d="M197.054 59.8505C193.936 59.8505 190.931 59.489 188.039 58.766C185.192 57.9978 182.933 57.0489 181.261 55.9192L184.785 48.3278C186.457 49.3671 188.423 50.2256 190.682 50.9034C192.987 51.5361 195.246 51.8524 197.46 51.8524C199.901 51.8524 201.618 51.5586 202.612 50.9712C203.651 50.3838 204.171 49.5704 204.171 48.5311C204.171 47.6725 203.764 47.0399 202.951 46.6332C202.182 46.1814 201.143 45.8425 199.833 45.6165C198.522 45.3906 197.076 45.1646 195.495 44.9387C193.958 44.7128 192.399 44.4191 190.818 44.0576C189.236 43.6509 187.79 43.0634 186.48 42.2953C185.17 41.5271 184.108 40.4878 183.294 39.1773C182.526 37.8669 182.142 36.1724 182.142 34.0938C182.142 31.7892 182.797 29.7558 184.108 27.9935C185.463 26.2312 187.406 24.853 189.937 23.8589C192.467 22.8196 195.495 22.2999 199.019 22.2999C201.505 22.2999 204.035 22.571 206.611 23.1133C209.187 23.6555 211.333 24.4463 213.05 25.4856L209.525 33.0093C207.763 31.97 205.978 31.2696 204.171 30.9081C202.408 30.5014 200.691 30.2981 199.019 30.2981C196.67 30.2981 194.953 30.6144 193.868 31.247C192.784 31.8796 192.241 32.693 192.241 33.6871C192.241 34.5908 192.625 35.2686 193.394 35.7205C194.207 36.1724 195.269 36.5339 196.579 36.805C197.89 37.0761 199.313 37.3247 200.849 37.5506C202.431 37.7314 204.013 38.0251 205.594 38.4318C207.176 38.8384 208.599 39.4259 209.864 40.1941C211.175 40.9171 212.237 41.9338 213.05 43.2442C213.863 44.5094 214.27 46.1814 214.27 48.26C214.27 50.5193 213.592 52.5302 212.237 54.2925C210.881 56.0096 208.915 57.3652 206.34 58.3593C203.809 59.3534 200.714 59.8505 197.054 59.8505Z" fill="white"/>
<path d="M157.863 73C154.429 73 151.108 72.5707 147.899 71.7121C144.736 70.8988 142.093 69.6561 139.969 67.9842L144.171 60.3927C145.708 61.658 147.651 62.6521 150.001 63.3751C152.396 64.1433 154.745 64.5274 157.05 64.5274C160.8 64.5274 163.512 63.6914 165.184 62.0195C166.901 60.3476 167.759 57.8623 167.759 54.5636V49.0733L168.437 39.9229L168.301 30.7047V22.8422H178.333V53.208C178.333 59.9861 176.571 64.9793 173.046 68.1875C169.521 71.3958 164.461 73 157.863 73ZM156.236 57.5459C152.847 57.5459 149.775 56.823 147.018 55.377C144.307 53.8858 142.115 51.8298 140.443 49.2089C138.817 46.5429 138.003 43.4475 138.003 39.9229C138.003 36.3531 138.817 33.2578 140.443 30.637C142.115 27.9709 144.307 25.9149 147.018 24.4689C149.775 23.0229 152.847 22.2999 156.236 22.2999C159.309 22.2999 162.02 22.9325 164.37 24.1978C166.72 25.4178 168.55 27.3383 169.86 29.9592C171.171 32.5348 171.826 35.8561 171.826 39.9229C171.826 43.9446 171.171 47.2659 169.86 49.8867C168.55 52.4624 166.72 54.3828 164.37 55.6481C162.02 56.9133 159.309 57.5459 156.236 57.5459ZM158.338 48.87C160.19 48.87 161.84 48.5085 163.286 47.7855C164.732 47.0173 165.861 45.9554 166.675 44.5998C167.488 43.2442 167.895 41.6852 167.895 39.9229C167.895 38.1154 167.488 36.5565 166.675 35.2461C165.861 33.8904 164.732 32.8511 163.286 32.1281C161.84 31.36 160.19 30.9759 158.338 30.9759C156.485 30.9759 154.836 31.36 153.39 32.1281C151.944 32.8511 150.791 33.8904 149.933 35.2461C149.119 36.5565 148.713 38.1154 148.713 39.9229C148.713 41.6852 149.119 43.2442 149.933 44.5998C150.791 45.9554 151.944 47.0173 153.39 47.7855C154.836 48.5085 156.485 48.87 158.338 48.87Z" fill="white"/>
<path d="M123.716 59.3082V22.8421H134.29V59.3082H123.716ZM129.003 17.7585C127.06 17.7585 125.478 17.1937 124.258 16.064C123.038 14.9343 122.428 13.5335 122.428 11.8616C122.428 10.1896 123.038 8.78884 124.258 7.65916C125.478 6.52948 127.06 5.96463 129.003 5.96463C130.946 5.96463 132.527 6.50688 133.748 7.59138C134.968 8.63068 135.578 9.9863 135.578 11.6582C135.578 13.4205 134.968 14.8891 133.748 16.064C132.573 17.1937 130.991 17.7585 129.003 17.7585Z" fill="white"/>
<path d="M98.4684 60.1216C94.7179 60.1216 91.261 59.5342 88.0979 58.3593C84.98 57.1393 82.2462 55.4222 79.8965 53.208C77.5919 50.9938 75.7844 48.3956 74.474 45.4132C73.2087 42.4309 72.5761 39.1548 72.5761 35.585C72.5761 32.0152 73.2087 28.7391 74.474 25.7568C75.7844 22.7744 77.6145 20.1761 79.9642 17.962C82.314 15.7478 85.0704 14.0533 88.2335 12.8784C91.3966 11.6583 94.876 11.0483 98.6718 11.0483C102.874 11.0483 106.647 11.7487 109.991 13.1495C113.38 14.5503 116.227 16.5838 118.532 19.2498L111.482 25.7568C109.765 23.9493 107.89 22.6163 105.857 21.7577C103.823 20.854 101.609 20.4021 99.214 20.4021C96.9095 20.4021 94.8082 20.7636 92.9104 21.4866C91.0125 22.2096 89.3632 23.2489 87.9624 24.6045C86.6068 25.9601 85.5449 27.5643 84.7767 29.4169C84.0537 31.2696 83.6922 33.3256 83.6922 35.585C83.6922 37.7992 84.0537 39.8326 84.7767 41.6853C85.5449 43.5379 86.6068 45.1647 87.9624 46.5655C89.3632 47.9211 90.9899 48.9604 92.8426 49.6834C94.7405 50.4064 96.8191 50.7679 99.0784 50.7679C101.247 50.7679 103.349 50.429 105.382 49.7512C107.461 49.0282 109.472 47.8307 111.415 46.1588L117.65 54.0892C115.075 56.0322 112.07 57.5234 108.636 58.5627C105.246 59.602 101.857 60.1216 98.4684 60.1216ZM107.619 52.6658V34.8394H117.65V54.0892L107.619 52.6658Z" fill="white"/>
<path d="M57.8151 59.3084V9.01497H68.3889V59.3084H57.8151Z" fill="white"/>
<path d="M40.8175 59.3084V9.01497H51.3913V59.3084H40.8175Z" fill="white"/>
<path d="M24.74 59.3083V52.1913L24.0622 50.6323V37.8895C24.0622 35.6301 23.3618 33.8678 21.961 32.6026C20.6054 31.3374 18.5042 30.7047 15.6574 30.7047C13.7143 30.7047 11.7939 31.021 9.896 31.6537C8.04333 32.2411 6.46177 33.0545 5.15134 34.0938L1.35562 26.7057C3.34385 25.3049 5.73878 24.2204 8.54039 23.4522C11.342 22.684 14.1888 22.2999 17.0808 22.2999C22.6388 22.2999 26.9542 23.6103 30.0269 26.2312C33.0996 28.8521 34.636 32.9415 34.636 38.4995V59.3083H24.74ZM13.6239 59.8505C10.7772 59.8505 8.33704 59.376 6.30362 58.4271C4.27019 57.433 2.71123 56.1 1.62674 54.428C0.542247 52.7561 0 50.8808 0 48.8022C0 46.6332 0.519653 44.7354 1.55896 43.1086C2.64345 41.4819 4.33797 40.2167 6.64252 39.3129C8.94707 38.364 11.952 37.8895 15.6574 37.8895H25.35V44.0576H16.8097C14.3244 44.0576 12.6072 44.4642 11.6583 45.2776C10.7546 46.091 10.3027 47.1077 10.3027 48.3278C10.3027 49.6834 10.8223 50.7679 11.8616 51.5812C12.9461 52.3494 14.4147 52.7335 16.2674 52.7335C18.0297 52.7335 19.6113 52.3268 21.0121 51.5135C22.4129 50.6549 23.4296 49.4123 24.0622 47.7855L25.6889 52.6657C24.9208 55.0155 23.52 56.8004 21.4865 58.0204C19.4531 59.2405 16.8322 59.8505 13.6239 59.8505Z" fill="white"/>
<path d="M229.077 0V13.8899H241.786L229.077 35.3025V21.4126H216.368L229.077 0Z" fill="#10B77F"/>
</svg>
